Coordinates
version=1
nRows=15
nColumns=27
inDegrees=yes

Units are S.I. units (second, meters, Newtons, ...)
If the header above contains a line with 'inDegrees', this indicates whether rotational values are in degrees (yes) or radians (no).

endheader
time	pelvis_rotation	pelvis_tilt	pelvis_list	pelvis_tx	pelvis_ty	pelvis_tz	hip_flexion_r	hip_adduction_r	hip_rotation_r	knee_angle_r	knee_rotation_r	knee_adduction_r	knee_angle_r_beta	ankle_angle_r	subtalar_angle_r	mtp_angle_r	hip_flexion_l	hip_adduction_l	hip_rotation_l	knee_angle_l	knee_rotation_l	knee_adduction_l	knee_angle_l_beta	ankle_angle_l	subtalar_angle_l	mtp_angle_l
      6.13500000	      6.11797941	    -31.31059927	      7.79601754	     -0.07657157	      0.65521873	     -1.16135787	     98.27861516	    -39.91744436	      6.90285052	     76.82446773	      0.00000000	      9.72119943	      1.34083991	      7.37146313	      0.00000000	      0.00000000	     90.43936469	    -23.20736009	      0.58777935	     68.43823544	      0.00000000	     -9.80708777	      1.19447254	      4.05272563	      0.00000000	      0.00000000
      6.14000000	      5.98029715	    -31.22971548	      7.93295868	     -0.07599915	      0.65550116	     -1.16149240	     98.29826931	    -39.77577811	      7.16502926	     76.80397167	      0.00000000	      9.71982982	      1.34048218	      7.34753079	      0.00000000	      0.00000000	     90.14760805	    -23.34322406	      0.28956969	     68.40306146	      0.00000000	     -9.80781680	      1.19385864	      4.08720061	      0.00000000	      0.00000000
      6.14500000	      6.00731826	    -31.13674756	      7.86005969	     -0.07528775	      0.65589629	     -1.16164573	     98.01290321	    -39.87556874	      6.97615491	     76.73581902	      0.00000000	      9.72304144	      1.33929270	      7.34965026	      0.00000000	      0.00000000	     90.01659703	    -23.29771040	      0.36239221	     68.37845111	      0.00000000	     -9.80839417	      1.19342911	      4.11585929	      0.00000000	      0.00000000
      6.15000000	      5.82436981	    -31.04592927	      7.92978615	     -0.07466966	      0.65622818	     -1.16175564	     97.94358864	    -39.69184981	      7.16636695	     76.69656186	      0.00000000	      9.72156348	      1.33860753	      7.36992357	      0.00000000	      0.00000000	     89.73104039	    -23.47967166	      0.10642715	     68.35188534	      0.00000000	     -9.81058644	      1.19296545	      4.15923586	      0.00000000	      0.00000000
      6.15500000	      5.96004316	    -31.01499945	      7.80487966	     -0.07394708	      0.65657464	     -1.16194262	     97.64857453	    -39.91756806	      6.82758049	     76.63635943	      0.00000000	      9.72491496	      1.33755680	      7.40615048	      0.00000000	      0.00000000	     89.75513555	    -23.33071936	      0.33486524	     68.36341250	      0.00000000	     -9.81040723	      1.19316664	      4.21890631	      0.00000000	      0.00000000
      6.16000000	      5.99578249	    -30.92328217	      7.82705785	     -0.07321428	      0.65707442	     -1.16217349	     97.42800708	    -40.00566235	      6.76739468	     76.54752809	      0.00000000	      9.72732277	      1.33600640	      7.39357935	      0.00000000	      0.00000000	     89.55428356	    -23.27071362	      0.29248313	     68.30620896	      0.00000000	     -9.81034133	      1.19216825	      4.22798965	      0.00000000	      0.00000000
      6.16500000	      5.74387340	    -30.83389408	      7.78649389	     -0.07274317	      0.65749426	     -1.16224703	     97.24552698	    -39.70254503	      6.90363852	     76.44531819	      0.00000000	      9.49925883	      1.33422250	      7.32386621	      0.00000000	      0.00000000	     89.29702693	    -23.47528360	      0.18635665	     68.25193275	      0.00000000	     -9.65033133	      1.19122095	      4.20898649	      0.00000000	      0.00000000
      6.17000000	      5.96998202	    -30.72135492	      7.83083270	     -0.07170912	      0.65796756	     -1.16255345	     96.98808702	    -40.08592157	      6.66205028	     76.40685159	      0.00000000	      9.72947239	      1.33355113	      7.40431408	      0.00000000	      0.00000000	     89.13502861	    -23.27515831	      0.16838034	     68.23358323	      0.00000000	     -9.81192091	      1.19090069	      4.31342064	      0.00000000	      0.00000000
      6.17500000	      5.59287608	    -30.79672611	      7.21199897	     -0.07125838	      0.65867125	     -1.16249923	     96.30229883	    -39.67807801	      5.98065709	     76.13220696	      0.00000000	      9.50083249	      1.32875768	      7.37703710	      0.00000000	      0.00000000	     89.34503782	    -23.62079572	      0.68153731	     68.26258435	      0.00000000	     -9.65351286	      1.19140685	      4.26565328	      0.00000000	      0.00000000
      6.18000000	      5.92994801	    -30.58506948	      7.87373979	     -0.07020362	      0.65897581	     -1.16293682	     96.63181601	    -40.12210553	      6.62338202	     76.25257725	      0.00000000	      9.73301004	      1.33085854	      7.42637457	      0.00000000	      0.00000000	     88.73262081	    -23.30007752	     -0.02080053	     68.13410518	      0.00000000	     -9.81363325	      1.18916447	      4.40911969	      0.00000000	      0.00000000
      6.18500000	      5.99156297	    -30.45769255	      7.81775438	     -0.06936399	      0.65945022	     -1.16314035	     96.28722361	    -40.27108972	      6.41376968	     76.16646823	      0.00000000	      9.73399153	      1.32935565	      7.44049256	      0.00000000	      0.00000000	     88.55645050	    -23.23387446	      0.03766522	     68.10803399	      0.00000000	     -9.81394638	      1.18870944	      4.44576376	      0.00000000	      0.00000000
      6.19000000	      5.92371600	    -30.40097529	      7.90890997	     -0.06860439	      0.66004642	     -1.16333623	     96.19660805	    -40.22531934	      6.51224662	     76.08393987	      0.00000000	      9.73521296	      1.32791526	      7.42129488	      0.00000000	      0.00000000	     88.28685185	    -23.29991989	     -0.19947540	     68.02554647	      0.00000000	     -9.81543648	      1.18726976	      4.48985503	      0.00000000	      0.00000000
      6.19500000	      5.80965411	    -30.32425221	      7.97008262	     -0.06780771	      0.66059442	     -1.16349405	     96.06386662	    -40.13741074	      6.60771099	     76.00412561	      0.00000000	      9.73425888	      1.32652224	      7.45365802	      0.00000000	      0.00000000	     88.00563894	    -23.42894761	     -0.44122981	     67.96637481	      0.00000000	     -9.81681913	      1.18623702	      4.52758353	      0.00000000	      0.00000000
      6.20000000	      5.74650636	    -30.26513766	      7.76011490	     -0.06720743	      0.66122318	     -1.16360397	     95.62430423	    -40.08101550	      6.30617348	     75.83425138	      0.00000000	      9.52048556	      1.32355737	      7.42814716	      0.00000000	      0.00000000	     87.92302299	    -23.44656848	     -0.22197429	     67.90149250	      0.00000000	     -9.66142516	      1.18510461	      4.52498258	      0.00000000	      0.00000000
      6.20500000	      6.00923862	    -30.17214769	      7.84400414	     -0.06614781	      0.66178997	     -1.16390917	     95.39538224	    -40.49255007	      6.08580880	     75.78612147	      0.00000000	      9.74192655	      1.32271735	      7.47487136	      0.00000000	      0.00000000	     87.75540187	    -23.21479847	     -0.26814049	     67.85681276	      0.00000000	     -9.81748412	      1.18432480	      4.60548644	      0.00000000	      0.00000000
